<svg id="svg" version="1.1" xmlns="http://www.w3.org/2000/svg" xmlns:xlink="http://www.w3.org/1999/xlink" width="400" height="400" viewBox="0, 0, 400,400"><g id="svgg"><path id="path0" d="M71.824 10.940 C 58.426 11.963,45.304 18.141,36.719 27.467 C 35.859 28.401,34.686 29.669,34.111 30.285 C 26.169 38.797,20.570 56.249,21.844 68.516 C 22.433 74.194,24.291 82.493,25.288 83.906 C 25.409 84.078,25.887 85.208,26.349 86.418 C 32.674 102.955,50.374 116.015,70.000 118.627 C 74.923 119.282,74.778 119.038,72.515 122.857 C 47.468 165.145,42.481 232.382,60.048 290.938 C 61.886 297.064,64.394 304.493,65.018 305.658 C 65.167 305.937,68.845 307.961,73.192 310.154 C 80.764 313.976,90.671 318.994,115.156 331.409 C 138.710 343.352,148.662 348.395,160.313 354.295 C 166.930 357.646,176.703 362.604,182.031 365.312 C 205.272 377.124,203.064 376.268,205.897 374.571 C 206.864 373.991,208.289 373.165,209.063 372.736 C 213.390 370.333,218.450 367.466,222.031 365.386 C 224.266 364.089,226.586 362.754,227.188 362.420 C 229.949 360.888,234.042 358.563,235.395 357.759 C 236.214 357.273,236.955 356.875,237.042 356.875 C 237.129 356.875,237.759 356.522,238.442 356.091 C 239.126 355.659,240.424 354.900,241.327 354.404 C 243.107 353.426,246.434 351.525,254.219 347.037 C 256.969 345.452,260.344 343.539,261.719 342.786 C 263.094 342.032,264.583 341.203,265.028 340.942 C 265.473 340.682,268.145 339.147,270.965 337.532 C 273.786 335.916,276.516 334.351,277.031 334.053 C 278.861 332.997,287.067 328.327,289.375 327.028 C 293.646 324.624,294.188 324.317,298.438 321.888 C 300.758 320.562,303.359 319.087,304.219 318.610 C 305.078 318.133,307.047 317.002,308.594 316.096 C 310.141 315.191,314.078 312.935,317.344 311.084 C 327.553 305.297,328.301 304.860,329.119 304.207 C 330.057 303.458,333.273 299.019,334.658 296.563 C 337.394 291.712,339.176 288.258,340.468 285.303 C 341.255 283.504,342.167 281.469,342.496 280.781 C 342.824 280.094,343.321 278.828,343.600 277.969 C 343.879 277.109,344.301 275.984,344.537 275.469 C 345.738 272.849,349.728 258.594,350.924 252.656 C 351.132 251.625,351.444 250.148,351.618 249.375 C 351.792 248.602,352.050 247.195,352.192 246.250 C 353.712 236.114,353.984 233.929,354.742 225.781 C 355.260 220.207,355.271 198.400,354.758 193.750 C 354.539 191.773,354.211 188.680,354.027 186.875 C 353.060 177.346,352.787 175.556,350.785 165.625 C 347.754 150.592,341.668 132.857,336.177 123.056 C 334.446 119.967,334.493 119.835,337.507 119.350 C 339.756 118.987,345.998 117.129,348.063 116.207 C 351.769 114.553,353.139 113.848,355.469 112.397 C 385.325 93.808,389.872 53.125,364.870 28.272 C 349.998 13.490,327.211 8.614,307.727 16.045 C 304.958 17.101,300.185 19.396,300.052 19.734 C 299.995 19.880,299.769 20.000,299.551 20.000 C 299.333 20.000,297.552 21.136,295.593 22.524 C 286.221 29.165,279.343 38.456,275.716 49.375 C 274.408 53.313,274.381 53.347,273.065 52.726 C 265.100 48.967,253.598 45.856,237.031 42.979 C 211.686 38.577,178.240 39.420,155.313 45.040 C 145.861 47.357,137.037 50.684,132.031 53.820 C 131.000 54.466,129.990 54.995,129.787 54.997 C 129.380 55.000,129.334 54.877,128.576 51.719 C 127.802 48.496,125.792 43.186,124.357 40.572 C 123.665 39.312,122.932 37.930,122.728 37.500 C 122.524 37.070,122.283 36.648,122.194 36.563 C 122.104 36.477,121.469 35.565,120.781 34.538 C 117.529 29.677,113.092 25.107,107.813 21.183 C 106.044 19.869,103.206 18.125,102.834 18.125 C 102.679 18.125,102.505 18.020,102.448 17.891 C 102.272 17.496,97.187 15.089,94.375 14.069 C 87.420 11.548,79.055 10.388,71.824 10.940 M83.203 14.870 C 104.206 18.468,119.614 32.195,125.090 52.188 C 125.533 53.804,125.754 54.996,126.549 60.036 C 127.211 64.234,126.706 71.970,125.461 76.719 C 124.609 79.970,123.991 81.995,123.506 83.125 C 114.589 103.910,98.117 115.107,76.406 115.143 C 67.947 115.157,67.618 115.114,60.781 113.063 C 29.810 103.773,15.593 66.085,32.630 38.438 C 43.181 21.316,64.053 11.590,83.203 14.870 M332.813 16.079 C 369.423 20.278,389.569 61.095,370.718 92.880 C 367.432 98.422,359.868 106.381,355.938 108.435 C 355.508 108.660,355.086 108.937,355.000 109.052 C 354.832 109.275,352.473 110.623,349.688 112.086 C 336.717 118.898,319.210 118.937,305.135 112.183 C 296.559 108.068,289.019 101.496,284.308 94.028 C 284.025 93.580,283.606 93.017,283.377 92.778 C 282.818 92.194,279.832 85.830,279.046 83.547 C 266.611 47.447,295.059 11.750,332.813 16.079 M214.375 43.774 C 234.251 44.928,250.553 47.953,265.938 53.342 C 274.511 56.346,274.015 55.962,273.400 59.126 C 271.598 68.404,274.709 84.448,279.879 92.539 C 280.360 93.291,280.987 94.358,281.274 94.909 C 286.584 105.134,301.019 115.588,314.098 118.684 C 319.417 119.942,320.264 120.056,325.558 120.228 C 331.828 120.432,331.097 120.009,333.541 124.844 C 337.822 133.315,341.346 142.203,343.884 150.938 C 344.508 153.086,345.225 155.547,345.478 156.406 C 346.008 158.214,348.275 168.474,348.735 171.153 C 349.674 176.616,350.633 183.554,350.937 187.084 C 351.127 189.289,351.344 191.278,351.420 191.503 C 352.252 193.982,352.121 220.311,351.231 229.531 C 350.655 235.491,349.432 244.069,348.468 248.906 C 347.884 251.836,347.626 253.013,346.452 258.125 C 344.874 264.995,341.457 275.191,338.387 282.188 C 335.783 288.121,330.965 297.178,330.269 297.448 C 330.121 297.505,330.000 297.693,330.000 297.866 C 330.000 298.322,328.073 301.014,327.354 301.563 C 327.015 301.820,326.242 302.324,325.635 302.683 C 323.631 303.865,313.933 309.446,312.500 310.242 C 311.727 310.671,310.278 311.495,309.280 312.074 C 308.283 312.652,307.401 313.125,307.321 313.125 C 307.241 313.125,306.580 313.506,305.853 313.972 C 305.126 314.437,303.828 315.193,302.969 315.650 C 302.109 316.108,300.070 317.252,298.438 318.192 C 291.317 322.293,286.933 324.807,285.625 325.538 C 282.777 327.131,270.454 334.091,270.000 334.364 C 269.742 334.519,267.000 336.082,263.906 337.837 C 260.813 339.593,257.508 341.487,256.563 342.048 C 255.617 342.609,254.211 343.423,253.438 343.859 C 252.664 344.294,251.188 345.131,250.156 345.719 C 249.125 346.308,247.578 347.182,246.719 347.663 C 245.859 348.143,244.632 348.866,243.991 349.268 C 243.349 349.671,242.759 350.000,242.679 350.000 C 242.546 350.000,236.090 353.663,235.000 354.357 C 234.742 354.521,233.997 354.945,233.345 355.299 C 232.692 355.653,227.278 358.732,221.313 362.140 C 211.197 367.921,209.227 369.038,205.156 371.306 C 204.297 371.785,203.400 372.179,203.163 372.182 C 202.639 372.189,192.723 367.220,151.719 346.406 C 128.446 334.593,120.579 330.604,120.063 330.354 C 119.771 330.213,119.242 329.951,118.889 329.772 C 118.536 329.592,113.051 326.813,106.702 323.595 C 94.256 317.288,72.069 306.011,69.540 304.707 C 67.731 303.774,67.428 303.258,65.677 298.125 C 55.891 269.432,51.520 237.570,53.095 206.406 C 54.583 176.943,62.008 148.053,73.293 127.813 C 78.477 118.516,77.849 119.158,82.298 118.606 C 110.263 115.137,129.895 93.245,130.171 65.221 C 130.206 61.648,130.287 58.682,130.352 58.631 C 134.873 55.065,146.470 50.276,155.781 48.131 C 157.328 47.774,159.086 47.354,159.688 47.196 C 161.177 46.806,171.654 45.149,175.313 44.726 C 187.792 43.280,200.518 42.970,214.375 43.774 M194.219 194.585 C 170.825 197.501,162.263 225.594,180.321 240.185 C 187.861 246.277,200.937 248.356,208.733 244.701 C 211.670 243.324,212.584 242.836,214.063 241.851 C 237.408 226.303,222.606 191.048,194.219 194.585 M204.380 198.412 C 225.733 204.055,229.078 230.960,209.640 240.724 C 196.329 247.411,179.443 240.761,174.828 227.015 C 169.104 209.963,186.044 193.567,204.380 198.412 " stroke="none" fill="#97ca43" fill-rule="evenodd"></path><path id="path1" d="M0.000 200.000 L 0.000 400.000 200.000 400.000 L 400.000 400.000 400.000 200.000 L 400.000 0.000 200.000 0.000 L 0.000 0.000 0.000 200.000 M82.188 10.761 C 86.209 11.242,90.716 12.231,93.196 13.177 C 94.102 13.523,95.336 13.959,95.938 14.147 C 97.817 14.733,104.630 18.366,107.238 20.172 C 117.207 27.078,124.988 37.771,128.299 49.113 C 128.918 51.234,129.553 53.289,129.709 53.680 L 129.994 54.391 131.638 53.418 C 151.155 41.866,192.405 36.697,228.594 41.269 C 239.911 42.698,252.586 45.183,259.844 47.395 C 266.138 49.313,271.551 51.257,273.199 52.192 C 273.985 52.638,274.375 52.571,274.375 51.989 C 274.375 51.164,276.544 45.357,277.820 42.765 C 282.763 32.728,290.167 24.749,299.498 19.404 C 301.027 18.529,302.317 17.812,302.366 17.812 C 302.414 17.813,303.484 17.339,304.743 16.759 C 334.180 3.213,371.028 20.475,379.371 51.719 C 379.738 53.094,380.165 54.641,380.320 55.156 C 383.521 65.808,380.955 81.861,374.077 94.219 C 368.829 103.649,356.142 114.414,347.031 117.166 C 346.344 117.374,345.500 117.670,345.156 117.824 C 344.100 118.298,338.992 119.627,337.404 119.841 C 335.388 120.113,335.363 120.387,337.056 123.621 C 337.859 125.153,339.062 127.672,339.731 129.219 C 340.400 130.766,341.156 132.405,341.411 132.861 C 341.666 133.317,341.875 133.846,341.875 134.036 C 341.875 134.226,342.152 134.978,342.491 135.707 C 343.746 138.404,345.992 144.907,347.644 150.625 C 349.962 158.651,350.317 160.209,352.803 173.281 C 354.393 181.643,355.997 200.794,355.890 210.156 C 355.671 229.422,353.028 249.113,348.592 264.531 C 347.662 267.764,345.670 274.039,345.318 274.844 C 344.781 276.073,343.437 279.642,343.438 279.839 C 343.438 279.950,343.086 280.809,342.656 281.748 C 342.227 282.687,341.875 283.538,341.875 283.639 C 341.875 284.035,336.521 294.635,335.505 296.250 C 330.047 304.928,330.796 304.248,320.313 310.030 C 318.680 310.930,316.500 312.180,315.469 312.807 C 314.438 313.435,312.539 314.521,311.250 315.222 C 309.961 315.922,306.516 317.868,303.594 319.545 C 300.672 321.222,297.186 323.208,295.847 323.958 C 294.508 324.708,290.078 327.243,286.003 329.591 C 281.928 331.940,278.031 334.167,277.344 334.540 C 274.041 336.334,270.096 338.567,268.960 339.283 C 268.267 339.721,266.425 340.783,264.866 341.644 C 263.307 342.504,261.469 343.519,260.781 343.898 C 260.094 344.277,257.633 345.690,255.313 347.038 C 252.992 348.386,250.039 350.077,248.750 350.796 C 245.158 352.798,226.765 363.286,223.594 365.139 C 222.047 366.043,220.008 367.205,219.063 367.721 C 218.117 368.236,216.570 369.122,215.625 369.688 C 214.680 370.254,213.063 371.150,212.031 371.678 C 211.000 372.207,210.016 372.755,209.844 372.896 C 208.891 373.679,204.388 376.011,203.553 376.153 C 202.513 376.330,201.539 375.872,185.156 367.497 C 178.074 363.876,165.791 357.649,140.938 345.078 C 125.847 337.445,109.277 329.046,95.156 321.871 C 89.484 318.989,80.484 314.442,75.156 311.765 C 69.828 309.089,65.211 306.629,64.897 306.298 C 64.379 305.753,61.885 299.061,60.744 295.156 C 60.492 294.297,60.164 293.172,60.013 292.656 C 59.862 292.141,59.303 290.242,58.771 288.438 C 56.344 280.206,53.518 267.754,52.531 260.938 C 52.057 257.663,50.956 249.739,50.600 247.031 C 48.321 229.730,48.898 200.232,51.866 182.344 C 52.008 181.484,52.343 179.445,52.610 177.813 C 53.820 170.395,58.327 152.711,59.694 150.015 C 59.829 149.749,60.122 148.898,60.345 148.125 C 60.568 147.352,61.580 144.680,62.593 142.188 C 63.605 139.695,64.656 137.094,64.928 136.406 C 65.641 134.601,70.951 124.239,72.295 122.031 C 73.834 119.501,73.826 119.483,71.016 119.232 C 64.643 118.663,50.673 114.354,50.052 112.766 C 49.995 112.620,49.772 112.500,49.556 112.500 C 49.341 112.500,47.773 111.576,46.071 110.446 C 30.396 100.039,21.227 83.036,21.256 64.431 C 21.269 55.669,23.863 45.674,28.026 38.337 C 30.590 33.817,31.717 32.274,35.781 27.721 C 46.912 15.247,64.855 8.690,82.188 10.761 M68.750 15.307 C 64.401 15.997,60.898 16.857,58.594 17.800 C 54.577 19.445,52.792 20.292,50.607 21.592 C 49.189 22.435,47.910 23.125,47.765 23.125 C 47.619 23.125,47.500 23.235,47.500 23.370 C 47.500 23.505,47.044 23.885,46.486 24.214 C 44.278 25.519,39.378 30.193,36.490 33.750 C 26.675 45.839,23.157 63.743,27.697 78.500 C 28.135 79.927,28.570 81.375,28.663 81.719 C 29.005 82.986,32.482 90.030,33.479 91.476 C 36.423 95.745,38.097 97.778,41.094 100.724 C 42.928 102.527,47.035 105.938,47.373 105.938 C 47.502 105.938,47.829 106.134,48.100 106.374 C 48.653 106.864,54.578 110.313,54.867 110.313 C 54.968 110.313,55.994 110.726,57.147 111.232 C 82.120 122.193,114.730 108.064,123.099 82.656 C 123.495 81.453,123.944 80.335,124.097 80.172 C 124.250 80.009,124.375 79.543,124.375 79.137 C 124.375 78.731,124.584 77.739,124.839 76.934 C 126.091 72.983,126.633 64.138,125.921 59.279 C 125.084 53.570,125.016 53.274,123.548 48.906 C 118.093 32.669,103.526 19.584,87.031 16.104 C 85.656 15.814,83.898 15.432,83.125 15.256 C 80.502 14.656,72.673 14.684,68.750 15.307 M320.938 16.456 C 307.649 18.511,295.863 24.711,288.911 33.305 C 288.226 34.151,287.406 35.125,287.088 35.469 C 286.273 36.350,283.307 40.851,282.556 42.344 C 277.975 51.455,276.742 56.572,276.760 66.406 C 276.773 73.242,276.839 73.856,278.123 79.063 C 278.527 80.700,279.804 84.361,280.521 85.938 C 281.736 88.610,283.809 92.609,284.453 93.523 C 287.670 98.088,292.250 103.117,295.469 105.618 C 296.156 106.152,296.930 106.761,297.188 106.970 C 309.149 116.709,329.898 119.484,345.469 113.428 C 348.973 112.065,354.599 108.967,357.181 106.978 C 370.293 96.879,377.500 82.599,377.500 66.719 C 377.500 61.449,376.005 52.751,374.547 49.531 C 374.313 49.016,373.744 47.680,373.281 46.563 C 372.066 43.626,368.949 38.305,367.297 36.346 C 366.979 35.968,366.367 35.199,365.938 34.635 C 356.539 22.305,336.211 14.094,320.938 16.456 M189.375 44.073 C 187.398 44.225,183.716 44.494,181.192 44.672 C 162.990 45.954,137.256 52.902,132.500 57.818 C 132.414 57.907,131.992 58.205,131.563 58.481 L 130.781 58.983 130.756 64.569 C 130.742 67.642,130.566 71.035,130.365 72.109 C 130.164 73.184,129.853 74.941,129.673 76.016 C 128.831 81.051,124.870 90.879,122.351 94.181 C 121.918 94.750,121.563 95.318,121.563 95.442 C 121.562 96.339,113.796 104.918,111.250 106.833 C 110.648 107.286,109.805 107.982,109.375 108.380 C 108.945 108.778,108.172 109.322,107.656 109.588 C 107.141 109.855,106.438 110.317,106.094 110.616 C 105.750 110.915,104.836 111.496,104.063 111.908 C 103.289 112.319,102.609 112.762,102.552 112.891 C 102.495 113.020,102.327 113.125,102.179 113.125 C 102.031 113.125,100.742 113.679,99.314 114.357 C 93.663 117.039,84.594 119.349,79.620 119.372 C 79.298 119.374,78.502 120.281,77.629 121.641 C 76.828 122.887,75.947 124.258,75.670 124.688 C 73.293 128.380,67.958 139.739,65.429 146.491 C 64.124 149.975,61.252 158.743,61.251 159.245 C 61.250 159.432,60.958 160.475,60.600 161.564 C 54.588 179.879,51.447 220.704,54.362 242.656 C 54.521 243.859,54.735 245.828,54.836 247.031 C 55.039 249.455,55.243 250.903,56.444 258.438 C 57.456 264.785,57.546 265.280,58.746 271.094 C 59.650 275.476,60.026 277.009,62.075 284.688 C 63.576 290.312,67.012 300.990,67.885 302.742 C 68.080 303.133,69.163 303.923,70.291 304.498 C 85.961 312.479,89.838 314.457,90.270 314.691 C 90.551 314.843,92.609 315.874,94.844 316.981 C 97.078 318.089,101.297 320.219,104.219 321.716 C 107.141 323.212,116.352 327.886,124.688 332.101 C 139.342 339.513,151.553 345.701,172.188 356.171 C 199.909 370.238,202.779 371.639,203.501 371.452 C 203.896 371.350,205.977 370.262,208.125 369.035 C 210.273 367.807,213.086 366.208,214.375 365.483 C 215.664 364.757,218.195 363.314,220.000 362.277 C 224.040 359.954,245.312 347.833,247.031 346.873 C 247.719 346.490,250.250 345.046,252.656 343.666 C 255.063 342.285,258.438 340.349,260.156 339.363 C 261.875 338.377,263.844 337.257,264.531 336.875 C 265.219 336.492,266.695 335.648,267.813 334.998 C 268.930 334.347,271.109 333.120,272.656 332.270 C 274.203 331.420,277.859 329.346,280.781 327.661 C 283.703 325.977,286.867 324.176,287.813 323.660 C 289.315 322.839,292.135 321.219,294.712 319.695 C 295.155 319.433,296.491 318.671,297.681 318.001 C 298.870 317.331,302.533 315.257,305.819 313.391 C 309.105 311.526,311.953 310.000,312.147 310.000 C 312.341 310.000,312.500 309.882,312.500 309.737 C 312.500 309.592,313.027 309.205,313.672 308.877 C 314.316 308.549,315.336 307.988,315.938 307.631 C 316.539 307.273,317.805 306.553,318.750 306.031 C 325.862 302.104,327.182 301.189,328.542 299.244 C 332.016 294.273,336.109 286.493,338.994 279.375 C 342.130 271.637,343.552 267.221,345.839 258.125 C 346.422 255.805,347.028 253.414,347.186 252.813 C 348.048 249.531,349.783 238.219,350.447 231.563 C 353.580 200.116,348.919 160.829,339.527 139.531 C 339.300 139.016,338.542 137.156,337.844 135.399 C 337.146 133.642,335.305 129.669,333.754 126.571 L 330.934 120.938 327.617 120.937 C 316.705 120.937,299.075 115.203,295.000 110.329 C 294.914 110.226,294.460 109.898,293.991 109.599 C 288.451 106.075,280.507 96.110,277.247 88.594 C 275.268 84.032,274.338 80.926,273.082 74.688 C 272.666 72.623,272.513 63.670,272.813 58.932 L 272.969 56.458 271.563 55.937 C 270.789 55.651,269.805 55.273,269.375 55.098 C 259.520 51.078,242.787 47.173,228.125 45.470 C 225.805 45.200,223.332 44.911,222.629 44.828 C 216.370 44.086,195.413 43.610,189.375 44.073 M206.419 175.783 C 210.631 176.313,213.698 176.800,215.313 177.194 C 215.914 177.340,217.109 177.630,217.969 177.837 C 229.073 180.514,241.820 187.404,250.590 195.469 C 253.260 197.924,257.085 201.953,258.173 203.454 C 258.719 204.208,259.438 205.110,259.772 205.459 C 265.748 211.708,272.914 228.276,274.644 239.844 C 274.824 241.047,275.142 243.086,275.351 244.375 C 276.130 249.187,275.829 257.897,274.643 264.844 C 270.831 287.177,258.414 305.353,238.546 317.682 C 225.015 326.079,203.608 330.359,188.438 327.700 C 169.585 324.396,155.715 317.243,143.438 304.495 C 135.044 295.780,127.270 282.177,124.974 272.188 C 124.836 271.586,124.450 269.969,124.116 268.594 C 122.586 262.291,121.658 252.023,122.196 247.344 C 122.374 245.797,122.655 243.266,122.820 241.719 C 123.085 239.235,123.331 237.925,124.373 233.438 C 127.362 220.567,135.729 205.792,144.918 197.157 C 161.982 181.120,185.072 173.096,206.419 175.783 M191.875 181.260 C 190.930 181.405,189.172 181.670,187.969 181.848 C 183.184 182.558,182.211 182.766,178.750 183.824 C 162.561 188.772,150.286 197.596,140.405 211.389 C 139.167 213.117,137.704 215.375,137.155 216.406 C 133.329 223.596,131.567 227.927,129.974 234.063 C 117.928 280.473,156.766 326.830,204.111 322.552 C 211.072 321.923,212.819 321.662,216.608 320.681 C 257.546 310.092,279.976 267.631,265.749 227.656 C 261.962 217.014,252.177 203.371,243.906 197.199 C 243.046 196.557,242.150 195.800,241.914 195.516 C 241.679 195.232,241.304 195.000,241.082 195.000 C 240.859 195.000,240.630 194.895,240.573 194.766 C 240.291 194.130,234.441 190.491,230.623 188.576 C 225.411 185.962,217.512 183.186,213.281 182.481 C 212.422 182.338,210.383 181.983,208.750 181.692 C 205.411 181.098,194.720 180.824,191.875 181.260 M205.156 194.847 C 230.371 201.258,233.851 233.595,210.487 244.383 C 198.565 249.889,183.211 246.349,175.757 236.378 C 175.255 235.706,174.690 234.992,174.502 234.792 C 173.541 233.769,171.463 229.063,170.776 226.357 C 165.825 206.838,184.609 189.623,205.156 194.847 M193.362 198.448 C 181.336 200.472,172.702 211.769,174.501 223.125 C 177.821 244.088,206.457 250.099,218.435 232.347 C 229.398 216.101,213.796 195.008,193.362 198.448 " stroke="none" fill="#fbfbfb" fill-rule="evenodd"></path><path id="path2" d="M193.410 176.070 C 193.337 176.142,191.802 176.353,189.998 176.539 C 186.317 176.917,183.807 177.318,182.188 177.786 C 181.586 177.960,180.165 178.320,179.030 178.585 C 154.691 184.286,132.665 205.778,125.728 230.595 C 123.546 238.401,122.114 250.139,122.777 254.788 C 122.968 256.133,123.124 257.891,123.124 258.694 C 123.122 260.760,124.448 267.702,125.733 272.344 C 127.370 278.263,130.520 285.704,132.677 288.750 C 133.225 289.523,134.049 290.904,134.509 291.818 C 135.892 294.569,139.283 299.115,142.710 302.812 C 143.427 303.586,144.273 304.500,144.589 304.844 C 145.219 305.529,148.343 308.408,149.921 309.759 C 156.664 315.531,168.140 321.953,175.205 323.908 C 176.210 324.186,177.313 324.533,177.656 324.678 C 178.485 325.028,183.028 326.082,186.875 326.817 C 195.110 328.390,206.839 328.030,215.781 325.930 C 217.328 325.567,219.086 325.154,219.688 325.012 C 224.488 323.881,233.430 320.036,238.552 316.900 C 241.097 315.343,245.247 312.525,245.955 311.875 C 246.235 311.617,247.084 310.917,247.842 310.318 C 251.381 307.521,257.535 300.969,260.548 296.788 C 273.056 279.435,277.735 258.659,273.759 238.125 C 273.058 234.504,272.956 234.106,271.520 229.375 C 267.554 216.308,258.186 202.232,247.969 193.988 C 239.220 186.929,229.919 181.937,220.469 179.230 C 219.438 178.935,218.271 178.565,217.876 178.409 C 217.481 178.253,216.804 178.125,216.371 178.125 C 215.938 178.125,215.323 177.985,215.004 177.815 C 213.068 176.779,194.223 175.256,193.410 176.070 M207.839 180.915 C 208.770 181.074,210.516 181.369,211.719 181.571 C 215.159 182.146,220.873 183.684,223.281 184.683 C 223.625 184.825,224.469 185.152,225.156 185.409 C 234.405 188.863,244.949 196.216,252.364 204.382 C 254.677 206.929,260.000 214.035,260.000 214.576 C 260.000 214.670,260.276 215.135,260.614 215.609 C 264.217 220.669,268.382 232.129,269.901 241.162 C 271.395 250.040,270.288 266.644,267.803 272.656 C 267.661 273.000,267.305 274.055,267.012 275.000 C 264.822 282.063,259.494 291.604,254.359 297.656 C 248.617 304.423,241.169 310.603,234.375 314.237 C 233.430 314.743,232.586 315.234,232.500 315.328 C 231.160 316.805,218.139 321.263,212.500 322.176 C 211.211 322.385,209.481 322.684,208.656 322.840 C 206.591 323.232,191.949 323.200,189.411 322.797 C 169.195 319.591,151.929 309.171,140.760 293.438 C 139.479 291.633,138.202 289.886,137.923 289.556 C 137.177 288.675,133.277 280.690,132.060 277.553 C 119.003 243.889,132.835 206.174,164.531 189.016 C 171.157 185.429,179.106 182.622,185.625 181.567 C 186.914 181.359,188.531 181.076,189.219 180.940 C 190.995 180.588,205.810 180.568,207.839 180.915 " stroke="none" fill="#48a3d9" fill-rule="evenodd"></path><path id="path3" d="M67.813 10.929 C 55.102 12.908,43.636 18.919,35.781 27.721 C 31.717 32.274,30.590 33.817,28.026 38.337 C 25.920 42.049,24.096 46.737,22.942 51.406 C 17.303 74.221,26.370 97.365,46.071 110.446 C 47.773 111.576,49.341 112.500,49.556 112.500 C 49.772 112.500,49.995 112.620,50.052 112.766 C 50.673 114.354,64.643 118.663,71.016 119.232 C 73.826 119.483,73.834 119.501,72.295 122.031 C 70.951 124.239,65.641 134.601,64.928 136.406 C 64.656 137.094,63.605 139.695,62.593 142.188 C 61.580 144.680,60.568 147.352,60.345 148.125 C 60.122 148.898,59.829 149.749,59.694 150.015 C 58.327 152.711,53.820 170.395,52.610 177.813 C 52.343 179.445,52.008 181.484,51.866 182.344 C 48.898 200.232,48.321 229.730,50.600 247.031 C 50.956 249.739,52.057 257.663,52.531 260.938 C 53.518 267.754,56.344 280.206,58.771 288.438 C 59.303 290.242,59.862 292.141,60.013 292.656 C 60.164 293.172,60.492 294.297,60.744 295.156 C 61.885 299.061,64.379 305.753,64.897 306.298 C 65.211 306.629,69.828 309.089,75.156 311.765 C 80.484 314.442,89.484 318.989,95.156 321.871 C 109.277 329.046,125.847 337.445,140.938 345.078 C 165.791 357.649,178.074 363.876,185.156 367.497 C 201.539 375.872,202.513 376.330,203.553 376.153 C 204.388 376.011,208.891 373.679,209.844 372.896 C 210.016 372.755,211.000 372.207,212.031 371.678 C 213.063 371.150,214.680 370.254,215.625 369.688 C 216.570 369.122,218.117 368.236,219.063 367.721 C 220.008 367.205,222.047 366.043,223.594 365.139 C 226.765 363.286,245.158 352.798,248.750 350.796 C 250.039 350.077,252.992 348.386,255.313 347.038 C 257.633 345.690,260.094 344.277,260.781 343.898 C 261.469 343.519,263.307 342.504,264.866 341.644 C 266.425 340.783,268.267 339.721,268.960 339.283 C 270.096 338.567,274.041 336.334,277.344 334.540 C 278.031 334.167,281.928 331.940,286.003 329.591 C 290.078 327.243,294.508 324.708,295.847 323.958 C 297.186 323.208,300.672 321.222,303.594 319.545 C 306.516 317.868,309.961 315.922,311.250 315.222 C 312.539 314.521,314.438 313.435,315.469 312.807 C 316.500 312.180,318.680 310.930,320.313 310.030 C 330.796 304.248,330.047 304.928,335.505 296.250 C 336.521 294.635,341.875 284.035,341.875 283.639 C 341.875 283.538,342.227 282.687,342.656 281.748 C 343.086 280.809,343.438 279.950,343.438 279.839 C 343.437 279.642,344.781 276.073,345.318 274.844 C 345.670 274.039,347.662 267.764,348.592 264.531 C 353.028 249.113,355.671 229.422,355.890 210.156 C 355.997 200.794,354.393 181.643,352.803 173.281 C 350.317 160.209,349.962 158.651,347.644 150.625 C 345.992 144.907,343.746 138.404,342.491 135.707 C 342.152 134.978,341.875 134.226,341.875 134.036 C 341.875 133.846,341.666 133.317,341.411 132.861 C 341.156 132.405,340.400 130.766,339.731 129.219 C 339.062 127.672,337.859 125.153,337.056 123.621 C 335.363 120.387,335.388 120.113,337.404 119.841 C 338.992 119.627,344.100 118.298,345.156 117.824 C 345.500 117.670,346.344 117.374,347.031 117.166 C 361.467 112.805,376.042 96.186,380.037 79.531 C 381.823 72.084,381.957 60.603,380.320 55.156 C 380.165 54.641,379.738 53.094,379.371 51.719 C 371.028 20.475,334.180 3.213,304.743 16.759 C 303.484 17.339,302.414 17.813,302.366 17.812 C 299.796 17.812,288.787 26.864,283.933 32.969 C 279.844 38.111,274.375 48.994,274.375 51.989 C 274.375 52.571,273.985 52.638,273.199 52.192 C 272.143 51.593,267.304 49.739,264.375 48.811 C 259.398 47.235,258.419 46.953,254.531 45.979 C 211.720 35.256,156.696 38.586,131.638 53.418 L 129.994 54.391 129.709 53.680 C 129.553 53.289,128.918 51.234,128.299 49.113 C 125.409 39.211,119.728 30.666,110.875 22.903 C 107.802 20.208,99.195 15.162,95.938 14.147 C 95.336 13.959,94.102 13.523,93.196 13.177 C 86.633 10.674,75.681 9.704,67.813 10.929 M83.693 11.443 C 90.250 12.387,101.761 16.344,102.448 17.891 C 102.505 18.020,102.679 18.125,102.834 18.125 C 102.989 18.125,103.856 18.578,104.761 19.131 C 110.731 22.782,116.860 28.677,120.781 34.538 C 121.469 35.565,122.104 36.477,122.194 36.563 C 122.283 36.648,122.524 37.070,122.728 37.500 C 122.932 37.930,123.665 39.312,124.357 40.572 C 125.792 43.186,127.802 48.496,128.576 51.719 C 129.334 54.877,129.380 55.000,129.787 54.997 C 129.990 54.995,131.000 54.466,132.031 53.820 C 141.410 47.945,158.777 43.216,178.125 41.268 C 197.048 39.364,220.064 40.032,237.031 42.979 C 253.598 45.856,265.100 48.967,273.065 52.726 C 274.381 53.347,274.408 53.313,275.716 49.375 C 279.343 38.456,286.221 29.165,295.593 22.524 C 297.552 21.136,299.333 20.000,299.551 20.000 C 299.769 20.000,299.995 19.880,300.052 19.734 C 300.185 19.396,304.958 17.101,307.727 16.045 C 327.211 8.614,349.998 13.490,364.870 28.272 C 389.872 53.125,385.325 93.808,355.469 112.397 C 353.139 113.848,351.769 114.553,348.063 116.207 C 345.998 117.129,339.756 118.987,337.507 119.350 C 334.493 119.835,334.446 119.967,336.177 123.056 C 341.668 132.857,347.754 150.592,350.785 165.625 C 352.787 175.556,353.060 177.346,354.027 186.875 C 354.211 188.680,354.539 191.773,354.758 193.750 C 355.271 198.400,355.260 220.207,354.742 225.781 C 353.984 233.929,353.712 236.114,352.192 246.250 C 352.050 247.195,351.792 248.602,351.618 249.375 C 351.444 250.148,351.132 251.625,350.924 252.656 C 349.728 258.594,345.738 272.849,344.537 275.469 C 344.301 275.984,343.879 277.109,343.600 277.969 C 343.321 278.828,342.824 280.094,342.496 280.781 C 342.167 281.469,341.255 283.504,340.468 285.303 C 339.176 288.258,337.394 291.712,334.658 296.563 C 333.273 299.019,330.057 303.458,329.119 304.207 C 328.301 304.860,327.553 305.297,317.344 311.084 C 314.078 312.935,310.141 315.191,308.594 316.096 C 307.047 317.002,305.078 318.133,304.219 318.610 C 303.359 319.087,300.758 320.562,298.438 321.888 C 294.188 324.317,293.646 324.624,289.375 327.028 C 287.067 328.327,278.861 332.997,277.031 334.053 C 276.516 334.351,273.786 335.916,270.965 337.532 C 268.145 339.147,265.473 340.682,265.028 340.942 C 264.583 341.203,263.094 342.032,261.719 342.786 C 260.344 343.539,256.969 345.452,254.219 347.037 C 246.434 351.525,243.107 353.426,241.327 354.404 C 240.424 354.900,239.126 355.659,238.442 356.091 C 237.759 356.522,237.129 356.875,237.042 356.875 C 236.955 356.875,236.214 357.273,235.395 357.759 C 234.042 358.563,229.949 360.888,227.188 362.420 C 226.586 362.754,224.266 364.089,222.031 365.386 C 218.450 367.466,213.390 370.333,209.063 372.736 C 208.289 373.165,206.864 373.991,205.897 374.571 C 203.064 376.268,205.272 377.124,182.031 365.312 C 176.703 362.604,166.930 357.646,160.313 354.295 C 148.662 348.395,138.710 343.352,115.156 331.409 C 90.671 318.994,80.764 313.976,73.192 310.154 C 68.845 307.961,65.167 305.937,65.018 305.658 C 64.394 304.493,61.886 297.064,60.048 290.938 C 42.481 232.382,47.468 165.145,72.515 122.857 C 74.778 119.038,74.923 119.282,70.000 118.627 C 50.374 116.015,32.674 102.955,26.349 86.418 C 25.887 85.208,25.409 84.078,25.288 83.906 C 24.291 82.493,22.433 74.194,21.844 68.516 C 20.570 56.249,26.169 38.797,34.111 30.285 C 34.686 29.669,35.859 28.401,36.719 27.467 C 48.180 15.017,66.089 8.907,83.693 11.443 M67.188 15.041 C 33.655 21.089,15.665 56.557,30.593 87.188 C 37.411 101.179,49.466 110.439,66.250 114.578 C 70.636 115.660,83.181 115.405,87.969 114.137 C 103.580 110.003,115.562 100.323,121.858 86.759 C 123.967 82.214,124.164 81.664,125.461 76.719 C 126.706 71.970,127.211 64.234,126.549 60.036 C 125.535 53.606,125.282 52.464,124.048 48.750 C 116.318 25.480,91.357 10.682,67.188 15.041 M83.125 15.256 C 83.898 15.432,85.656 15.814,87.031 16.104 C 103.526 19.584,118.093 32.669,123.548 48.906 C 125.016 53.274,125.084 53.570,125.921 59.279 C 126.633 64.138,126.091 72.983,124.839 76.934 C 124.584 77.739,124.375 78.731,124.375 79.137 C 124.375 79.543,124.250 80.009,124.097 80.172 C 123.944 80.335,123.495 81.453,123.099 82.656 C 114.730 108.064,82.120 122.193,57.147 111.232 C 55.994 110.726,54.968 110.313,54.867 110.313 C 54.578 110.313,48.653 106.864,48.100 106.374 C 47.829 106.134,47.502 105.938,47.373 105.938 C 47.035 105.938,42.928 102.527,41.094 100.724 C 38.097 97.778,36.423 95.745,33.479 91.476 C 32.482 90.030,29.005 82.986,28.663 81.719 C 28.570 81.375,28.135 79.927,27.697 78.500 C 23.157 63.743,26.675 45.839,36.490 33.750 C 39.378 30.193,44.278 25.519,46.486 24.214 C 47.044 23.885,47.500 23.505,47.500 23.370 C 47.500 23.235,47.619 23.125,47.765 23.125 C 47.910 23.125,49.189 22.435,50.607 21.592 C 52.792 20.292,54.577 19.445,58.594 17.800 C 64.715 15.295,77.494 13.969,83.125 15.256 M321.406 15.955 C 291.232 18.566,269.658 49.599,277.647 78.900 C 279.009 83.894,282.146 91.491,283.377 92.778 C 283.606 93.017,284.025 93.580,284.308 94.028 C 293.632 108.808,310.760 117.667,328.925 117.107 C 338.354 116.817,344.422 115.090,353.125 110.222 C 354.070 109.693,354.914 109.166,355.000 109.052 C 355.086 108.937,355.508 108.660,355.938 108.435 C 359.868 106.381,367.432 98.422,370.718 92.880 C 392.178 56.696,363.715 12.295,321.406 15.955 M334.494 16.748 C 346.480 18.635,359.300 25.928,365.938 34.635 C 366.367 35.199,366.979 35.968,367.297 36.346 C 368.949 38.305,372.066 43.626,373.281 46.563 C 373.744 47.680,374.313 49.016,374.547 49.531 C 376.005 52.751,377.500 61.449,377.500 66.719 C 377.500 82.599,370.293 96.879,357.181 106.978 C 349.983 112.522,340.449 115.941,330.471 116.554 C 318.316 117.301,305.259 113.542,297.188 106.970 C 296.930 106.761,296.156 106.152,295.469 105.618 C 292.250 103.117,287.670 98.088,284.453 93.523 C 283.809 92.609,281.736 88.610,280.521 85.938 C 279.804 84.361,278.527 80.700,278.123 79.063 C 276.839 73.856,276.773 73.242,276.760 66.406 C 276.742 56.572,277.975 51.455,282.556 42.344 C 283.307 40.851,286.273 36.350,287.088 35.469 C 287.406 35.125,288.226 34.151,288.911 33.305 C 295.863 24.711,307.649 18.511,320.938 16.456 C 323.167 16.111,331.604 16.293,334.494 16.748 M192.656 43.489 C 182.891 43.770,176.910 44.343,166.563 45.989 C 163.383 46.495,160.289 47.038,159.688 47.196 C 159.086 47.354,157.328 47.774,155.781 48.131 C 146.470 50.276,134.873 55.065,130.352 58.631 C 130.287 58.682,130.206 61.648,130.171 65.221 C 129.895 93.245,110.263 115.137,82.298 118.606 C 77.849 119.158,78.477 118.516,73.293 127.813 C 63.443 145.479,56.662 169.256,53.775 196.250 C 50.669 225.294,54.625 263.640,63.656 292.031 C 66.997 302.534,67.523 303.667,69.540 304.707 C 72.069 306.011,94.256 317.288,106.702 323.595 C 113.051 326.813,118.536 329.592,118.889 329.772 C 119.242 329.951,119.771 330.213,120.063 330.354 C 120.579 330.604,128.446 334.593,151.719 346.406 C 192.723 367.220,202.639 372.189,203.163 372.182 C 203.400 372.179,204.297 371.785,205.156 371.306 C 209.227 369.038,211.197 367.921,221.313 362.140 C 227.278 358.732,232.692 355.653,233.345 355.299 C 233.997 354.945,234.742 354.521,235.000 354.357 C 236.090 353.663,242.546 350.000,242.679 350.000 C 242.759 350.000,243.349 349.671,243.991 349.268 C 244.632 348.866,245.859 348.143,246.719 347.663 C 247.578 347.182,249.125 346.308,250.156 345.719 C 251.188 345.131,252.664 344.294,253.438 343.859 C 254.211 343.423,255.617 342.609,256.563 342.048 C 257.508 341.487,260.813 339.593,263.906 337.837 C 267.000 336.082,269.742 334.519,270.000 334.364 C 270.454 334.091,282.777 327.131,285.625 325.538 C 286.933 324.807,291.317 322.293,298.438 318.192 C 300.070 317.252,302.109 316.108,302.969 315.650 C 303.828 315.193,305.126 314.437,305.853 313.972 C 306.580 313.506,307.241 313.125,307.321 313.125 C 307.401 313.125,308.283 312.652,309.280 312.074 C 310.278 311.495,311.727 310.671,312.500 310.242 C 313.933 309.446,323.631 303.865,325.635 302.683 C 326.242 302.324,327.015 301.820,327.354 301.563 C 328.073 301.014,330.000 298.322,330.000 297.866 C 330.000 297.693,330.121 297.505,330.269 297.448 C 330.965 297.178,335.783 288.121,338.387 282.188 C 341.457 275.191,344.874 264.995,346.452 258.125 C 347.626 253.013,347.884 251.836,348.468 248.906 C 349.432 244.069,350.655 235.491,351.231 229.531 C 352.121 220.311,352.252 193.982,351.420 191.503 C 351.344 191.278,351.127 189.289,350.937 187.084 C 350.633 183.554,349.674 176.616,348.735 171.153 C 348.275 168.474,346.008 158.214,345.478 156.406 C 345.225 155.547,344.508 153.086,343.884 150.938 C 341.346 142.203,337.822 133.315,333.541 124.844 C 331.097 120.009,331.828 120.432,325.558 120.228 C 320.264 120.056,319.417 119.942,314.098 118.684 C 301.019 115.588,286.584 105.134,281.274 94.909 C 280.987 94.358,280.360 93.291,279.879 92.539 C 274.709 84.448,271.598 68.404,273.400 59.126 C 273.887 56.622,273.738 56.211,272.111 55.566 C 269.064 54.358,260.855 51.577,257.656 50.670 C 238.529 45.242,216.467 42.804,192.656 43.489 M216.067 44.353 C 218.974 44.531,221.927 44.745,222.629 44.828 C 223.332 44.911,225.805 45.200,228.125 45.470 C 242.787 47.173,259.520 51.078,269.375 55.098 C 269.805 55.273,270.789 55.651,271.563 55.937 L 272.969 56.458 272.813 58.932 C 272.513 63.670,272.666 72.623,273.082 74.688 C 275.048 84.455,277.390 90.251,282.300 97.500 C 284.876 101.303,291.139 107.785,293.991 109.599 C 294.460 109.898,294.914 110.226,295.000 110.329 C 299.075 115.203,316.705 120.937,327.617 120.937 L 330.934 120.938 333.754 126.571 C 335.305 129.669,337.146 133.642,337.844 135.399 C 338.542 137.156,339.300 139.016,339.527 139.531 C 348.919 160.829,353.580 200.116,350.447 231.563 C 349.783 238.219,348.048 249.531,347.186 252.813 C 347.028 253.414,346.422 255.805,345.839 258.125 C 343.552 267.221,342.130 271.637,338.994 279.375 C 336.109 286.493,332.016 294.273,328.542 299.244 C 327.182 301.189,325.862 302.104,318.750 306.031 C 317.805 306.553,316.539 307.273,315.938 307.631 C 315.336 307.988,314.316 308.549,313.672 308.877 C 313.027 309.205,312.500 309.592,312.500 309.737 C 312.500 309.882,312.341 310.000,312.147 310.000 C 311.953 310.000,309.105 311.526,305.819 313.391 C 302.533 315.257,298.870 317.331,297.681 318.001 C 296.491 318.671,295.155 319.433,294.712 319.695 C 292.135 321.219,289.315 322.839,287.813 323.660 C 286.867 324.176,283.703 325.977,280.781 327.661 C 277.859 329.346,274.203 331.420,272.656 332.270 C 271.109 333.120,268.930 334.347,267.813 334.998 C 266.695 335.648,265.219 336.492,264.531 336.875 C 263.844 337.257,261.875 338.377,260.156 339.363 C 258.438 340.349,255.063 342.285,252.656 343.666 C 250.250 345.046,247.719 346.490,247.031 346.873 C 245.312 347.833,224.040 359.954,220.000 362.277 C 218.195 363.314,215.664 364.757,214.375 365.483 C 213.086 366.208,210.273 367.807,208.125 369.035 C 205.977 370.262,203.896 371.350,203.501 371.452 C 202.779 371.639,199.909 370.238,172.188 356.171 C 151.553 345.701,139.342 339.513,124.688 332.101 C 116.352 327.886,107.141 323.212,104.219 321.716 C 101.297 320.219,97.078 318.089,94.844 316.981 C 92.609 315.874,90.551 314.843,90.270 314.691 C 89.838 314.457,85.961 312.479,70.291 304.498 C 69.163 303.923,68.080 303.133,67.885 302.742 C 67.012 300.990,63.576 290.312,62.075 284.688 C 60.026 277.009,59.650 275.476,58.746 271.094 C 57.546 265.280,57.456 264.785,56.444 258.438 C 55.243 250.903,55.039 249.455,54.836 247.031 C 54.735 245.828,54.521 243.859,54.362 242.656 C 52.537 228.917,53.062 204.873,55.609 185.469 C 56.406 179.392,59.305 165.508,60.600 161.564 C 60.958 160.475,61.250 159.432,61.251 159.245 C 61.252 158.743,64.124 149.975,65.429 146.491 C 67.958 139.739,73.293 128.380,75.670 124.688 C 75.947 124.258,76.828 122.887,77.629 121.641 C 78.502 120.281,79.298 119.374,79.620 119.372 C 84.594 119.349,93.663 117.039,99.314 114.357 C 100.742 113.679,102.031 113.125,102.179 113.125 C 102.327 113.125,102.495 113.020,102.552 112.891 C 102.609 112.762,103.289 112.319,104.063 111.908 C 104.836 111.496,105.750 110.915,106.094 110.616 C 106.438 110.317,107.141 109.855,107.656 109.588 C 108.172 109.322,108.945 108.778,109.375 108.380 C 109.805 107.982,110.648 107.286,111.250 106.833 C 113.796 104.918,121.562 96.339,121.563 95.442 C 121.563 95.318,121.918 94.750,122.351 94.181 C 124.870 90.879,128.831 81.051,129.673 76.016 C 129.853 74.941,130.164 73.184,130.365 72.109 C 130.566 71.035,130.742 67.642,130.756 64.569 L 130.781 58.983 131.563 58.481 C 131.992 58.205,132.414 57.907,132.500 57.818 C 137.256 52.902,162.990 45.954,181.192 44.672 C 183.716 44.494,187.398 44.225,189.375 44.073 C 193.670 43.744,208.678 43.901,216.067 44.353 M193.438 194.206 C 179.057 196.878,170.000 207.055,170.000 220.541 C 170.000 224.979,172.389 232.541,174.502 234.792 C 174.690 234.992,175.255 235.706,175.757 236.378 C 188.486 253.406,217.625 249.133,224.781 229.189 C 231.499 210.466,213.579 190.465,193.438 194.206 M202.836 194.876 C 226.917 198.970,233.993 228.577,214.063 241.851 C 212.584 242.836,211.670 243.324,208.733 244.701 C 199.308 249.119,184.038 245.349,176.798 236.816 C 160.738 217.891,177.681 190.599,202.836 194.876 M193.594 197.836 C 176.928 201.149,168.703 217.810,176.943 231.567 C 186.760 247.957,212.185 246.952,220.537 229.844 C 228.420 213.695,211.992 194.180,193.594 197.836 M202.714 198.579 C 219.211 202.099,227.228 219.317,218.435 232.347 C 206.457 250.099,177.821 244.088,174.501 223.125 C 172.144 208.241,187.082 195.244,202.714 198.579 " stroke="none" fill="#cee8a4" fill-rule="evenodd"></path><path id="path4" d="M190.469 175.795 C 172.175 178.186,158.062 184.805,144.918 197.157 C 135.729 205.792,127.362 220.567,124.373 233.438 C 123.331 237.925,123.085 239.235,122.820 241.719 C 122.655 243.266,122.374 245.797,122.196 247.344 C 121.658 252.023,122.586 262.291,124.116 268.594 C 124.450 269.969,124.836 271.586,124.974 272.188 C 127.270 282.177,135.044 295.780,143.438 304.495 C 155.715 317.243,169.585 324.396,188.438 327.700 C 203.608 330.359,225.015 326.079,238.546 317.682 C 258.414 305.353,270.831 287.177,274.643 264.844 C 275.829 257.897,276.130 249.187,275.351 244.375 C 275.142 243.086,274.824 241.047,274.644 239.844 C 272.914 228.276,265.748 211.708,259.772 205.459 C 259.438 205.110,258.719 204.208,258.173 203.454 C 253.375 196.830,243.005 188.552,233.511 183.767 C 228.639 181.311,222.220 178.862,217.969 177.837 C 217.109 177.630,215.914 177.340,215.313 177.194 C 208.438 175.516,197.368 174.893,190.469 175.795 M206.406 176.410 C 212.166 177.116,214.371 177.476,215.004 177.815 C 215.323 177.985,215.938 178.125,216.371 178.125 C 216.804 178.125,217.481 178.253,217.876 178.409 C 218.271 178.565,219.438 178.935,220.469 179.230 C 229.919 181.937,239.220 186.929,247.969 193.988 C 259.449 203.251,268.268 217.362,272.820 233.750 C 278.527 254.295,273.846 278.338,260.548 296.788 C 257.535 300.969,251.381 307.521,247.842 310.318 C 247.084 310.917,246.235 311.617,245.955 311.875 C 245.247 312.525,241.097 315.343,238.552 316.900 C 233.430 320.036,224.488 323.881,219.688 325.012 C 219.086 325.154,217.328 325.567,215.781 325.930 C 206.839 328.030,195.110 328.390,186.875 326.817 C 183.028 326.082,178.485 325.028,177.656 324.678 C 177.313 324.533,176.210 324.186,175.205 323.908 C 168.140 321.953,156.664 315.531,149.921 309.759 C 148.343 308.408,145.219 305.529,144.589 304.844 C 144.273 304.500,143.427 303.586,142.710 302.812 C 139.283 299.115,135.892 294.569,134.509 291.818 C 134.049 290.904,133.225 289.523,132.677 288.750 C 130.520 285.704,127.370 278.263,125.733 272.344 C 124.448 267.702,123.122 260.760,123.124 258.694 C 123.124 257.891,122.968 256.133,122.777 254.788 C 122.114 250.139,123.546 238.401,125.728 230.595 C 132.665 205.778,154.691 184.286,179.030 178.585 C 180.165 178.320,181.586 177.960,182.188 177.786 C 183.807 177.318,186.317 176.917,189.998 176.539 C 191.802 176.353,193.337 176.142,193.410 176.070 C 193.729 175.750,203.002 175.992,206.406 176.410 M189.219 180.940 C 188.531 181.076,186.914 181.359,185.625 181.567 C 171.817 183.802,157.980 191.232,147.172 202.213 C 127.877 221.817,121.934 251.447,132.060 277.553 C 133.277 280.690,137.177 288.675,137.923 289.556 C 138.202 289.886,139.479 291.633,140.760 293.438 C 151.929 309.171,169.195 319.591,189.411 322.797 C 191.949 323.200,206.591 323.232,208.656 322.840 C 209.481 322.684,211.211 322.385,212.500 322.176 C 218.139 321.263,231.160 316.805,232.500 315.328 C 232.586 315.234,233.430 314.743,234.375 314.237 C 241.169 310.603,248.617 304.423,254.359 297.656 C 259.494 291.604,264.822 282.063,267.012 275.000 C 267.305 274.055,267.661 273.000,267.803 272.656 C 270.288 266.644,271.395 250.040,269.901 241.162 C 268.382 232.129,264.217 220.669,260.614 215.609 C 260.276 215.135,260.000 214.670,260.000 214.576 C 260.000 214.035,254.677 206.929,252.364 204.382 C 244.949 196.216,234.405 188.863,225.156 185.409 C 224.469 185.152,223.625 184.825,223.281 184.683 C 220.873 183.684,215.159 182.146,211.719 181.571 C 210.516 181.369,208.770 181.074,207.839 180.915 C 205.810 180.568,190.995 180.588,189.219 180.940 M208.750 181.692 C 210.383 181.983,212.422 182.338,213.281 182.481 C 217.512 183.186,225.411 185.962,230.623 188.576 C 234.441 190.491,240.291 194.130,240.573 194.766 C 240.630 194.895,240.859 195.000,241.082 195.000 C 241.304 195.000,241.679 195.232,241.914 195.516 C 242.150 195.800,243.046 196.557,243.906 197.199 C 256.331 206.471,267.247 225.685,269.464 242.188 C 274.297 278.160,251.793 311.580,216.608 320.681 C 206.033 323.417,192.704 323.393,181.745 320.618 C 143.597 310.959,120.178 271.805,129.974 234.063 C 131.567 227.927,133.329 223.596,137.155 216.406 C 144.912 201.835,160.965 189.260,178.750 183.824 C 182.211 182.766,183.184 182.558,187.969 181.848 C 189.172 181.670,190.930 181.405,191.875 181.260 C 194.720 180.824,205.411 181.098,208.750 181.692 " stroke="none" fill="#a8d5ee" fill-rule="evenodd"></path></g></svg>