<?xml version="1.0" encoding="iso-8859-1"?>
<!-- Generator: Adobe Illustrator 19.0.0, SVG Export Plug-In . SVG Version: 6.00 Build 0)  -->
<svg version="1.1" id="Capa_1" xmlns="http://www.w3.org/2000/svg" xmlns:xlink="http://www.w3.org/1999/xlink" x="0px" y="0px"
	 viewBox="0 0 511.341 511.341" style="enable-background:new 0 0 511.341 511.341;" xml:space="preserve">
<g>
	
		<linearGradient id="SVGID_1_" gradientUnits="userSpaceOnUse" x1="-48.7747" y1="655.4945" x2="-48.0752" y2="654.7631" gradientTransform="matrix(490.853 0 0 -469.4012 24025.1875 307811.6563)">
		<stop  offset="0" style="stop-color:#D4E1F4"/>
		<stop  offset="0.1717" style="stop-color:#D4E1F4"/>
		<stop  offset="0.2" style="stop-color:#D4E1F4"/>
		<stop  offset="0.2001" style="stop-color:#DAE4F4"/>
		<stop  offset="0.2007" style="stop-color:#EBEBF4"/>
		<stop  offset="0.2014" style="stop-color:#F6F1F4"/>
		<stop  offset="0.2023" style="stop-color:#FDF4F4"/>
		<stop  offset="0.205" style="stop-color:#FFF5F4"/>
		<stop  offset="0.2522" style="stop-color:#FFF5F4"/>
		<stop  offset="0.26" style="stop-color:#FFF5F4"/>
		<stop  offset="0.26" style="stop-color:#D4E1F4"/>
		<stop  offset="0.3974" style="stop-color:#D4E1F4"/>
		<stop  offset="0.42" style="stop-color:#D4E1F4"/>
		<stop  offset="0.4201" style="stop-color:#DAE4F4"/>
		<stop  offset="0.4207" style="stop-color:#EBEBF4"/>
		<stop  offset="0.4214" style="stop-color:#F6F1F4"/>
		<stop  offset="0.4223" style="stop-color:#FDF4F4"/>
		<stop  offset="0.425" style="stop-color:#FFF5F4"/>
		<stop  offset="0.4894" style="stop-color:#FFF5F4"/>
		<stop  offset="0.5" style="stop-color:#FFF5F4"/>
		<stop  offset="0.5" style="stop-color:#F9F2F4"/>
		<stop  offset="0.5001" style="stop-color:#E8EBF4"/>
		<stop  offset="0.5003" style="stop-color:#DDE5F4"/>
		<stop  offset="0.5005" style="stop-color:#D6E2F4"/>
		<stop  offset="0.501" style="stop-color:#D4E1F4"/>
		<stop  offset="0.7062" style="stop-color:#D4E1F4"/>
		<stop  offset="0.74" style="stop-color:#D4E1F4"/>
		<stop  offset="0.741" style="stop-color:#FFF5F4"/>
		<stop  offset="0.8346" style="stop-color:#FFF5F4"/>
		<stop  offset="0.85" style="stop-color:#FFF5F4"/>
		<stop  offset="0.851" style="stop-color:#D4E1F4"/>
	</linearGradient>
	<path style="fill:url(#SVGID_1_);" d="M493.112,225.415c7.206-7.024,9.8-17.53,6.69-27.1c-3.11-9.57-11.383-16.546-21.341-17.992
		l-123.81-17.99c-8.61-1.252-16.054-6.66-19.905-14.462l-55.37-112.189c-5.701-11.629-19.025-17.37-31.393-13.528
		c-2.368-2.258-4.378-1.04-7.165,3.508c-3.777,2.509-6.83,5.963-8.855,10.02l-11.58,23.465l-57.142,88.724
		c-3.851,7.802-11.295,13.21-19.905,14.462l-67.663,11.773l-42.794,6.218c-9.958,1.447-18.232,8.422-21.341,17.992
		c-3.11,9.57-0.516,20.076,6.69,27.1l89.59,87.327c6.231,6.074,9.074,14.824,7.603,23.4l-21.15,123.31
		c-1.439,8.429,1.284,17.033,7.311,23.099c6.027,6.066,14.613,8.845,23.051,7.461c5.64,0.941,11.433-0.005,16.48-2.693
		l110.739-58.22c2.533-1.271,5.255-2.123,8.06-2.525c2.805,0.402,5.527,1.254,8.06,2.525l110.739,58.22
		c8.907,4.683,19.7,3.904,27.841-2.011c8.141-5.915,12.218-15.938,10.517-25.856l-21.149-123.31
		c-1.472-8.576,1.371-17.327,7.602-23.4L493.112,225.415z"/>
	<path style="fill:#FFFFFF;" d="M18.227,225.415c-7.206-7.024-9.799-17.53-6.69-27.1s11.383-16.545,21.341-17.992l123.81-17.99
		c8.61-1.252,16.054-6.66,19.905-14.462l55.369-112.189c5.702-11.629,19.026-17.37,31.394-13.528
		c-3.252,4.124-5.921,8.676-7.93,13.528l-38.484,112.189c-3.851,7.802-11.294,13.211-19.905,14.463l-123.81,17.99
		c-9.958,1.447-18.232,8.422-21.341,17.992c-3.11,9.57-0.516,20.076,6.69,27.1l89.59,87.327c6.231,6.073,9.074,14.824,7.602,23.4
		l-21.148,123.31c-2.712,15.807,3.525,18.938,14.641,15.52c0.286,1.032,0.723,2.016,1.299,2.92l-17.932,9.428
		c-8.907,4.683-19.699,3.903-27.84-2.012c-8.141-5.915-12.218-15.938-10.517-25.856l21.15-123.31
		c1.471-8.576-1.372-17.327-7.602-23.4L18.227,225.415z"/>
	<path style="fill:#428DFF;" d="M391.045,500.635c-5.958-0.004-11.825-1.463-17.091-4.25l-110.749-58.22
		c-4.717-2.48-10.353-2.48-15.07,0l-110.74,58.22c-12.356,6.495-27.327,5.412-38.62-2.793c-11.293-8.205-16.949-22.109-14.59-35.867
		l21.15-123.31c0.896-5.257-0.85-10.618-4.669-14.34l-89.59-87.33c-9.996-9.744-13.594-24.318-9.279-37.595
		c4.315-13.276,15.794-22.951,29.609-24.955l123.81-17.99c5.277-0.767,9.838-4.08,12.2-8.86l55.37-112.2
		c6.179-12.516,18.927-20.44,32.885-20.44s26.706,7.924,32.885,20.44l0,0l55.37,112.2c2.36,4.778,6.917,8.09,12.19,8.86
		l123.82,17.99c13.815,2.005,25.294,11.679,29.609,24.955c4.315,13.276,0.718,27.851-9.279,37.595l-89.59,87.33
		c-3.819,3.722-5.565,9.083-4.669,14.34l21.15,123.31c1.813,10.65-1.153,21.559-8.109,29.825
		c-6.956,8.266-17.198,13.052-28.001,13.085L391.045,500.635z M255.665,415.825c5.947,0.002,11.804,1.447,17.07,4.21l110.75,58.23
		c5.457,2.864,12.067,2.383,17.052-1.241c4.985-3.625,7.48-9.764,6.438-15.839l-21.15-123.31
		c-2.044-11.897,1.902-24.038,10.55-32.46l89.59-87.33c4.414-4.303,6.003-10.739,4.099-16.602
		c-1.904-5.863-6.97-10.138-13.07-11.028l-123.82-17.99c-11.947-1.729-22.275-9.232-27.61-20.06l-55.37-112.2
		c-2.732-5.524-8.362-9.02-14.525-9.02s-11.792,3.496-14.525,9.02l-55.37,112.2c-5.34,10.829-15.671,18.332-27.62,20.06
		l-123.81,17.99c-6.1,0.89-11.166,5.165-13.07,11.028c-1.904,5.863-0.315,12.299,4.099,16.602l89.59,87.33
		c8.648,8.422,12.594,20.563,10.55,32.46l-21.15,123.31c-1.042,6.076,1.456,12.218,6.443,15.842
		c4.987,3.625,11.599,4.105,17.057,1.238l110.73-58.22C243.859,417.276,249.717,415.828,255.665,415.825L255.665,415.825z"/>
</g>
<g>
</g>
<g>
</g>
<g>
</g>
<g>
</g>
<g>
</g>
<g>
</g>
<g>
</g>
<g>
</g>
<g>
</g>
<g>
</g>
<g>
</g>
<g>
</g>
<g>
</g>
<g>
</g>
<g>
</g>
</svg>
